:SAMPLES-PER-SECOND 24
:FULLY-SPECIFIED
:DEGREES
670
root  2.67379 39.6624 26.8511 176.83 -30.8113 -177.996
RightUpLeg  -21.6182 -19.8417 -9.36044
RightLeg  17.3105 9.56538 3.16179
RightFoot  9.15167 -1.82621 10.4215
RightToes  -1.74623e-010 0 -2.59999e-017
Spine  0.539889 0.135499 -3.95049
Spine1  17.2306 -1.09531 3.40735
HEad  -11.5784 -14.4069 10.1911
LeftShoulder1  2.0813 -4.09329 -21.0094
LeftArm  12.5378 13.2184 -50.0283
LeftForeArm  123.497 -78.2771 -121.882
LeftHand  -0.29191 3.27885 15.6385
RightShoulder  2.83859 4.91619 27.7544
RightArm  -6.7193 -7.417 39.0478
RightForeArm  20.6459 64.4619 22.2155
RightHand  0.0539751 -3.42401 4.5716
LeftUpLeg  12.9843 5.98093 10.3334
LeftLeg  15.2016 1.06112 0.274387
LeftFoot  -8.62931 0.431891 -16.0458
LeftToes  -6.27559e-011 -2.10356e-011 8.24929e-012
671
root  2.69621 38.7791 26.9021 177.278 -25.0574 -178.988
RightUpLeg  -23.6172 -14.9925 -9.85914
RightLeg  10.1417 5.73463 3.45862
RightFoot  7.59179 -1.72951 10.6504
RightToes  -1.74623e-010 0 -2.59999e-017
Spine  1.55939 0.314005 -5.99852
Spine1  16.9717 -1.14185 4.27131
HEad  -12.4137 -9.87984 8.87038
LeftShoulder1  2.28113 -4.18941 -23.3952
LeftArm  12.5258 6.18319 -46.2297
LeftForeArm  110.285 -79.4317 -108.869
LeftHand  -0.316284 3.27884 17.0424
RightShoulder  3.12998 5.3208 29.5492
RightArm  -6.47069 -0.922804 37.9298
RightForeArm  20.9242 63.9353 21.5893
RightHand  -0.0296577 -4.82026 -0.408472
LeftUpLeg  15.8244 8.01473 9.18909
LeftLeg  13.9352 5.66891 0.233533
LeftFoot  -14.6228 -0.382894 -16.4552
LeftToes  -6.27559e-011 -2.10356e-011 8.24929e-012
672
root  2.75816 37.9506 26.6191 177.321 -19.8522 179.904
RightUpLeg  -24.1733 -10.2024 -10.9175
RightLeg  3.69207 -5.86369 4.68248
RightFoot  5.0437 -1.70949 12.0745
RightToes  -1.74623e-010 0 -2.59999e-017
Spine  0.542254 0.368695 -8.4424
Spine1  19.4633 -1.46551 5.23318
HEad  -13.562 -5.51594 6.54046
LeftShoulder1  2.40781 -4.12472 -25.4053
LeftArm  11.6403 -5.80692 -45.6096
LeftForeArm  76.906 -79.6368 -77.217
LeftHand  -0.258645 3.73049 17.5879
RightShoulder  3.34359 5.56115 30.995
RightArm  -7.02199 5.69227 39.3896
RightForeArm  22.4627 63.6739 21.1038
RightHand  0.12136 -7.66659 -7.78817
LeftUpLeg  18.081 9.05516 7.34449
LeftLeg  13.9955 10.3664 0.52292
LeftFoot  -20.4022 -1.19351 -16.5007
LeftToes  -6.27559e-011 -2.10356e-011 8.24929e-012
673
root  2.84899 37.3699 25.7966 177.045 -15.4736 179.329
RightUpLeg  -23.9237 -7.83419 -9.68956
RightLeg  0.482018 -16.7523 6.1263
RightFoot  3.595 -1.36836 10.6149
RightToes  -1.74623e-010 0 -2.59999e-017
Spine  -1.6708 -0.365018 -9.60933
Spine1  21.2239 -2.04106 4.86068
HEad  -11.4015 -0.919294 4.83996
LeftShoulder1  2.23474 -3.84101 -24.209
LeftArm  8.75423 -20.1018 -49.6451
LeftForeArm  59.3932 -78.4392 -61.3947
LeftHand  -0.296778 3.42128 17.1112
RightShoulder  3.26995 5.48748 30.4693
RightArm  -6.13038 8.43182 44.3341
RightForeArm  27.419 65.7996 22.9612
RightHand  0.283178 -9.01229 -10.1996
LeftUpLeg  20.5418 9.79461 6.51626
LeftLeg  14.6754 14.6482 1.70761
LeftFoot  -22.4367 -1.60024 -17.7454
LeftToes  -6.27559e-011 -2.10356e-011 8.24929e-012
674
root  2.97497 37.1694 24.4439 176.79 -11.637 179.307
RightUpLeg  -24.441 -6.6715 -6.69776
RightLeg  2.64206 -18.0901 5.43407
RightFoot  6.1227 -0.602996 4.31849
RightToes  -1.74623e-010 0 -2.59999e-017
Spine  -3.48768 -1.99146 -10.0832
Spine1  19.2353 -3.36867 4.40397
HEad  -4.95483 4.47619 3.85863
LeftShoulder1  1.86507 -3.39449 -20.6264
LeftArm  2.59938 -35.2413 -53.9546
LeftForeArm  62.9865 -78.8075 -66.0193
LeftHand  -0.397511 2.993 18.9821
RightShoulder  2.94818 5.11834 28.2418
RightArm  -2.09829 7.15147 48.7698
RightForeArm  38.1039 71.3057 30.6641
RightHand  0.0303221 -7.58712 -3.25243
LeftUpLeg  23.8036 10.3972 7.07731
LeftLeg  14.3221 16.141 1.81697
LeftFoot  -20.0477 -1.4311 -20.1679
LeftToes  -6.27559e-011 -2.10356e-011 8.24929e-012
675
root  3.21969 37.2234 22.5728 176.271 -7.36629 179.663
RightUpLeg  -26.4257 -9.97393 -0.301354
RightLeg  9.97671 -4.96191 2.50997
RightFoot  9.12784 0.120504 -0.316074
RightToes  -1.74623e-010 0 -2.59999e-017
Spine  -4.95978 -4.32074 -11.4649
Spine1  15.0806 -5.93598 5.76869
HEad  2.73045 11.947 2.29313
LeftShoulder1  1.38354 -2.6446 -15.7146
LeftArm  -9.44571 -47.3399 -50.9793
LeftForeArm  73.8646 -79.4744 -78.8599
LeftHand  -0.547983 2.71176 23.4774
RightShoulder  2.54412 4.56073 25.4962
RightArm  4.64362 5.70238 50.4082
RightForeArm  60.376 77.7251 52.0136
RightHand  -0.0514411 -5.90416 3.44436
LeftUpLeg  26.4755 15.8533 11.1985
LeftLeg  17.5688 10.5708 2.35896
LeftFoot  -16.0948 -0.937475 -24.6941
LeftToes  -6.27559e-011 -2.10356e-011 8.24929e-012
676
root  3.60382 37.2703 20.4211 174.909 -1.72182 179.878
RightUpLeg  -26.555 -9.42752 4.46079
RightLeg  17.2908 3.47947 1.01162
RightFoot  9.38178 0.251085 -1.01949
RightToes  -1.74623e-010 0 -2.59999e-017
Spine  -6.11254 -6.72598 -12.783
Spine1  11.2417 -8.56885 7.97596
HEad  10.0435 20.9357 1.05312
LeftShoulder1  0.915645 -1.60407 -10.6724
LeftArm  -26.8549 -51.107 -38.261
LeftForeArm  80.4291 -79.5486 -88.1057
LeftHand  -0.698988 2.46817 27.4974
RightShoulder  2.23936 4.10873 23.2603
RightArm  10.6838 4.77162 50.7901
RightForeArm  104.096 80.105 97.8278
RightHand  -0.0602331 -6.59415 2.09778
LeftUpLeg  25.8304 18.0202 12.8864
LeftLeg  28.4061 14.2209 8.53791
LeftFoot  -3.85521 1.75847 -26.1127
LeftToes  -6.27559e-011 -2.10356e-011 8.24929e-012
677
root  3.93756 37.2411 18.542 172.045 5.22972 179.376
RightUpLeg  -23.4211 -4.25882 5.44498
RightLeg  22.5418 3.07373 1.19221
RightFoot  8.56103 0.461151 -2.29477
RightToes  -1.74623e-010 0 -2.59999e-017
Spine  -6.34854 -8.1328 -11.8248
Spine1  9.40596 -9.76773 8.63827
HEad  16.7776 28.7264 0.93675
LeftShoulder1  0.670772 -0.720755 -8.42105
LeftArm  -41.5877 -47.4037 -23.4328
LeftForeArm  82.4002 -79.439 -92.4958
LeftHand  -0.731803 2.53548 29.4371
RightShoulder  2.06232 3.89852 21.6072
RightArm  13.168 4.14246 51.1264
RightForeArm  137.184 76.4305 133.683
RightHand  -0.00251427 -7.42874 -2.09245
LeftUpLeg  20.6747 15.8551 9.77238
LeftLeg  44.2226 16.3434 16.5093
LeftFoot  18.9274 4.85354 -18.2766
LeftToes  -6.27559e-011 -2.10356e-011 8.24929e-012
678
root  4.06689 37.073 17.1383 167.797 12.0418 178.329
RightUpLeg  -19.4786 -1.24798 6.09096
RightLeg  27.7996 5.15244 2.73266
RightFoot  6.60496 0.785102 -4.69287
RightToes  -1.74623e-010 0 -2.59999e-017
Spine  -6.30401 -8.50503 -7.90118
Spine1  11.5957 -9.20277 6.549
HEad  21.8372 33.9105 0.827409
LeftShoulder1  0.675357 -0.426405 -9.84822
LeftArm  -50.2695 -40.6873 -12.1508
LeftForeArm  92.3326 -79.01 -104.53
LeftHand  -0.719998 2.68499 30.5249
RightShoulder  2.02907 3.87485 21.2231
RightArm  12.7008 6.11946 51.6154
RightForeArm  148.838 72.2141 146.798
RightHand  0.0234751 -7.25935 -3.59411
LeftUpLeg  10.5496 14.2211 5.67284
LeftLeg  61.3932 5.75141 11.0937
LeftFoot  33.1844 5.59306 -14.0118
LeftToes  -6.27559e-011 -2.10356e-011 8.24929e-012
